<?xml version="1.0" encoding="UTF-8"?>
<svg width="24px" height="24px" viewBox="0 0 24 24" version="1.1" xmlns="http://www.w3.org/2000/svg" xmlns:xlink="http://www.w3.org/1999/xlink">
    <title>Group 16</title>
    <g id="Final" stroke="none" stroke-width="1" fill="none" fill-rule="evenodd">
        <g id="Group-16">
            <rect id="Rectangle" x="0" y="0" width="24" height="24"></rect>
            <g id="notes_622215" transform="translate(2, 2)" fill="#1677FF" fill-rule="nonzero">
                <path d="M17.815,3.33332031 C17.2308203,3.33332031 16.6825,3.56082031 16.2708203,3.97332031 L15.8333203,4.41082031 L15.8333203,1.25 C15.8333203,0.560820312 15.2725,0 14.5833203,0 L1.25,0 C0.560820312,0 0,0.560820312 0,1.25 L0,18.75 C0,19.4391797 0.560820312,20 1.25,20 L14.5833203,20 C15.2725,20 15.8333203,19.4391797 15.8333203,18.75 L15.8333203,10.8333203 C15.8333203,10.7625 15.8116406,10.6991406 15.78,10.6416406 L18.2083203,8.21332031 C18.2091406,8.2125 18.21,8.2125 18.2108203,8.21164062 C18.2116406,8.21082031 18.2116406,8.20996094 18.2125,8.20914062 L19.36,7.06164062 C19.7733203,6.64917969 20,6.1 20,5.51667969 C20,4.3125 19.02,3.33332031 17.815,3.33332031 Z M12.9166797,2.5 C13.1458594,2.5 13.3333594,2.68667969 13.3333594,2.91667969 C13.3333594,3.14667969 13.1458594,3.33335938 12.9166797,3.33335938 C12.6875,3.33332031 12.5,3.14667969 12.5,2.91667969 C12.5,2.68667969 12.6875,2.5 12.9166797,2.5 Z M9.58332031,2.5 C9.8125,2.5 10,2.68667969 10,2.91667969 C10,3.14667969 9.8125,3.33335938 9.58332031,3.33335938 C9.35414062,3.33335938 9.16664062,3.14667969 9.16664062,2.91667969 C9.16664062,2.68667969 9.35417969,2.5 9.58332031,2.5 Z M6.25,2.5 C6.47917969,2.5 6.66667969,2.68667969 6.66667969,2.91667969 C6.66667969,3.14667969 6.47917969,3.33335938 6.25,3.33335938 C6.02082031,3.33335938 5.83332031,3.14667969 5.83332031,2.91667969 C5.83332031,2.68667969 6.02082031,2.5 6.25,2.5 Z M2.91667969,2.5 C3.14585938,2.5 3.33335938,2.68667969 3.33335938,2.91667969 C3.33335938,3.14667969 3.14585938,3.33335938 2.91667969,3.33335938 C2.6875,3.33332031 2.5,3.14667969 2.5,2.91667969 C2.5,2.68667969 2.6875,2.5 2.91667969,2.5 Z M15,18.75 C15,18.98 14.8125,19.1666797 14.5833203,19.1666797 L1.25,19.1666797 C1.02082031,19.1666797 0.833320312,18.98 0.833320312,18.75 L0.833320312,1.25 C0.833320312,1.02 1.02082031,0.833320312 1.25,0.833320312 L2.5,0.833320312 L2.5,1.74332031 C2.01582031,1.91582031 1.66667969,2.37414062 1.66667969,2.91664063 C1.66667969,3.60582031 2.2275,4.16664063 2.91667969,4.16664063 C3.60585937,4.16664063 4.16667969,3.60582031 4.16667969,2.91664063 C4.16667969,2.37414062 3.8175,1.91582031 3.33335937,1.74332031 L3.33335937,0.833320312 L5.83335938,0.833320312 L5.83335938,1.74332031 C5.34917969,1.91582031 5,2.37417969 5,2.91667969 C5,3.60585938 5.56082031,4.16667969 6.25,4.16667969 C6.93917969,4.16667969 7.5,3.60585938 7.5,2.91667969 C7.5,2.37417969 7.15082031,1.91585938 6.66667969,1.74335937 L6.66667969,0.833320312 L9.16667969,0.833320312 L9.16667969,1.74332031 C8.6825,1.91582031 8.33335938,2.37414062 8.33335938,2.91664063 C8.33335938,3.60582031 8.89417969,4.16664063 9.58335938,4.16664063 C10.2725391,4.16664063 10.8333594,3.60582031 10.8333594,2.91664063 C10.8333594,2.37414062 10.4841797,1.91582031 10.0000391,1.74332031 L10.0000391,0.833320312 L12.5000391,0.833320312 L12.5000391,1.74332031 C12.0158594,1.91582031 11.6667187,2.37414062 11.6667187,2.91664063 C11.6667187,3.60582031 12.2275391,4.16664063 12.9167187,4.16664063 C13.6058984,4.16664063 14.1667188,3.60582031 14.1667188,2.91664063 C14.1667188,2.37414062 13.8175391,1.91582031 13.3333984,1.74332031 L13.3333984,0.833320312 L14.5833984,0.833320312 C14.8125,0.833320312 15,1.02 15,1.25 L15,5.24417969 L11.9108203,8.33335938 L2.91667969,8.33335938 C2.68667969,8.33332031 2.5,8.52 2.5,8.75 C2.5,8.98 2.68667969,9.16667969 2.91667969,9.16667969 L11.0775,9.16667969 L8.5775,11.6666797 L2.91667969,11.6666797 C2.68667969,11.6666797 2.5,11.8533594 2.5,12.0833594 C2.5,12.3133594 2.68667969,12.5 2.91667969,12.5 L8.21585937,12.5 L7.59085937,15 L2.91667969,15 C2.68667969,15 2.5,15.1866797 2.5,15.4166797 C2.5,15.6466797 2.68667969,15.8333594 2.91667969,15.8333594 L7.91667969,15.8333594 C7.95,15.8333594 7.98417969,15.8291797 8.0175,15.8200391 L11.3508203,14.9867188 C11.36,14.9842187 11.3666406,14.9758984 11.3758203,14.9725391 C11.4308203,14.9542188 11.48,14.9275391 11.5225,14.8900391 C11.5291797,14.8842188 11.5383203,14.8833594 11.5441797,14.8775391 L15,11.4216797 L15,18.75 Z M9.05917969,12.5641797 C9.32835937,12.6425 9.72667969,12.8158594 10.1216797,13.2108594 C10.5166797,13.6058594 10.6908594,14.0050391 10.7691797,14.2733594 L8.48917969,14.8441797 L9.05917969,12.5641797 Z M11.4716797,13.7716797 C11.3358594,13.4283594 11.11,13.0191797 10.7108594,12.6216797 C10.3125391,12.2233594 9.90335937,11.9975 9.56085937,11.8616797 L12.3783594,9.04417969 L15.4166797,6.00585938 L17.3266797,7.91667969 L11.4716797,13.7716797 Z M18.7708203,6.4725 L17.9158203,7.3275 L16.0058203,5.41667969 L16.8608203,4.56167969 C17.115,4.30585937 17.4541406,4.16585938 17.8166406,4.16585938 C18.5608203,4.16585938 19.1666406,4.77167969 19.1666406,5.51753906 C19.1666797,5.87832031 19.0258203,6.21667969 18.7708203,6.4725 Z" id="Shape"></path>
            </g>
        </g>
    </g>
</svg>